<?xml version="1.0" encoding="utf-8"?>
<!-- Generator: Adobe Illustrator 21.0.0, SVG Export Plug-In . SVG Version: 6.00 Build 0)  -->
<svg version="1.1" id="图层_1" xmlns="http://www.w3.org/2000/svg" xmlns:xlink="http://www.w3.org/1999/xlink" x="0px" y="0px"
	 viewBox="0 0 198.7 197" style="enable-background:new 0 0 198.7 197;" xml:space="preserve">
<style type="text/css">
	.st0{fill:#F6CA4F;}
</style>
<path class="st0" d="M130.8,163.2c-2.9-3.3-5.7-6.6-8.6-9.9c-0.2-0.3-0.4-0.6-0.8-0.7c-0.4,0.4-0.7,0.8-1.1,1.2
	c-8.4,9.6-16.8,19.1-25.3,28.7c-2.2,2.5-4.4,5-6.6,7.5c-0.2,0.2-0.4,0.3-0.3,0.7c0.3,0,0.6,0,1,0.1c6.3,0.1,12.6,0.2,18.9,0.4
	c4.8,0.1,9.7,0.2,14.5,0.3c0.5,0,1.1,0.1,1.6,0.2c0.4,0,0.9,0,1.3,0c0.3-0.3,0.5-0.7,0.8-1c4.5-5.1,9-10.2,13.5-15.3
	c0.3-0.3,0.6-0.5,0.7-0.9c-0.2-0.3-0.5-0.6-0.7-0.8C136.7,170,133.8,166.6,130.8,163.2z"/>
<path class="st0" d="M193.7,52.4c0-0.2-0.1-0.4-0.1-0.7c-0.4,0-0.8,0-1.2,0c-2.8,0-5.6,0-8.5,0c-0.4,0-0.8,0.1-1.2-0.1
	c-0.1-0.5-0.1-0.9-0.1-1.4c0-13.3,0-26.5,0-39.8c0-0.4,0-0.7,0-1.1c0-0.3-0.2-0.5-0.5-0.5c-0.4,0-0.7,0-1.1,0c-8.8,0-17.6,0-26.3,0
	c-17.8,0-35.6,0-53.5,0c-0.4,0-0.8,0-1.2,0c-0.3,0-0.5,0.2-0.6,0.6c0,0.4,0,0.7,0,1.1c0,13.2,0,26.3,0,39.5c0,0.4,0,0.7,0,1.1
	c0,0.2,0,0.4-0.1,0.7c-0.9,0.1-1.7,0-2.5,0.1c-0.9,0-1.7,0-2.6,0c-0.8,0-1.7,0-2.5,0c-0.9,0-1.7,0-2.6,0c0,0.4-0.1,0.6-0.1,0.9
	c-0.1,9.2-0.1,25,0.1,26.1c0.4,0,0.8,0.1,1.1,0.1c11.7,0,23.3,0,35,0c0.2,0,0.4,0,0.7,0c0.6,0,0.7-0.2,0.7-0.7c0-0.4,0-0.7,0-1.1
	c0-13.1,0-26.2,0-39.2c0-0.4,0-0.7,0-1.1c0-0.2,0.1-0.4,0.1-0.7c0.5,0,0.9,0,1.3,0c8.6,0,17.2,0,25.8,0c0.3,0,0.5,0,0.8,0
	c0.2,0,0.4,0.1,0.7,0.1c0,0.5,0,1,0,1.4c0,13.2,0,26.4,0,39.6c0,0.3,0,0.6,0,0.9c0,0.6,0.2,0.8,0.8,0.8c0.3,0,0.7,0,1,0
	c11.7,0,23.3,0,35,0c0.3,0,0.6,0,0.9,0c0.2,0,0.4-0.1,0.7-0.2c0-0.5,0-0.9,0-1.3c0-8.1,0-16.1,0-24.2
	C193.7,52.9,193.7,52.7,193.7,52.4z"/>
<path class="st0" d="M191.3,88.1c-33.8,0-67.5,0-101.3,0c-0.3,0-0.7,0-1,0c-0.2,0-0.4,0.1-0.6,0.1c-0.2,1.2-0.2,19-0.1,26.2
	c0,0.2,0,0.5,0.1,0.8c0.2,0,0.4,0.1,0.5,0.1c0.5,0,0.8,0.2,1.1,0.6c0.1,0.1,0.2,0.2,0.3,0.3c7.5,8.7,15,17.3,22.5,26
	c2.7,3.1,5.3,6.2,8,9.3c0.2,0.2,0.3,0.6,0.8,0.6c6-6.9,12.1-13.8,18.2-20.7c-0.3-0.3-0.5-0.6-0.7-0.9c-2.3-2.6-4.7-5.2-7-7.8
	c-1.9-2.2-3.9-4.4-5.8-6.6c-0.2-0.2-0.3-0.4-0.4-0.6c0.5-0.2,0.9-0.1,1.4-0.1c8.4,0,16.8,0,25.3,0c0.3,0,0.6,0,0.9,0
	c0.2,0,0.3,0.1,0.6,0.2c-0.3,0.4-0.6,0.7-0.9,1.1c-4,4.6-8.1,9.2-12.1,13.8c-0.3,0.3-0.6,0.7-0.9,1c6.4,7.1,12.7,14.2,19,21.2
	c0.1,0.1,0.2,0.1,0.3,0.2c0.3-0.3,0.5-0.6,0.8-0.9c10.4-11.8,20.8-23.6,31.2-35.5c0.4-0.5,0.9-1,1.5-1.3c0.1-2,0.1-26-0.1-27
	C192.3,88.1,191.8,88.1,191.3,88.1z"/>
<path class="st0" d="M77.8,122c-0.5-0.1-0.9-0.1-1.3-0.1c-23.3,0-46.6,0-69.9,0c-0.3,0-0.5,0-0.8,0c-0.2,0-0.4,0.1-0.6,0.1
	c-0.1,0.9-0.2,65.4-0.1,68c0,0.2,0.1,0.3,0.1,0.5c0.6,0.3,1.1,0.2,1.6,0.2c23.1,0,46.2,0,69.3,0c0.4,0,0.7,0,1.1,0
	c0.2,0,0.3-0.1,0.6-0.1c0.2-1.2,0.2-62.4,0.1-68C77.9,122.5,77.9,122.3,77.8,122z M52.6,166.3c0,0.1-0.1,0.3-0.1,0.4
	c-0.4,0.3-0.8,0.2-1.2,0.2c-2.5,0-5,0-7.5,0c-4,0-8.1,0-12.1,0c-0.4,0-0.8,0-1.2,0c-0.1-1-0.2-19.7,0-20.8c0.2,0,0.4-0.1,0.6-0.1
	c0.2,0,0.4,0,0.6,0c6.5,0,13.1,0,19.6,0c0.4,0,0.8,0,1.2,0.1c0,0.1,0.1,0.3,0.1,0.4C52.6,153,52.6,159.7,52.6,166.3z"/>
<path class="st0" d="M5.8,43c0.2,0.1,0.3,0.1,0.3,0.1c23.3,0,46.6,0,69.9,0c0.3,0,0.6,0,0.9,0c0,0,0.1,0,0.1,0c0,0,0.1,0,0.1-0.1
	c0-0.3,0-0.6,0-1c0-8.2,0-16.5,0-24.7c0-1.3,0-1.3-1.3-1.3c-4.2,0-8.4,0-12.6,0c-2,0-3.9,0-5.9,0c-0.3,0-0.6,0-1-0.1
	c-0.1-1.2-0.1-2.4-0.1-3.5c0-1.2,0-2.3,0-3.5c-0.2-0.1-0.3-0.1-0.4-0.1C45.6,7,35.3,5.3,25,3.7c0,0-0.1,0-0.1,0c0,0-0.1,0-0.2,0.1
	c0,0.3,0,0.7,0,1c0,3.3,0,6.6,0,9.9c0,0.4,0.1,0.8-0.1,1.2c-0.4,0-0.9,0-1.3,0c-5.3,0-10.7,0-16,0c-1.2,0-1.4-0.1-1.4,1.4
	c0,8.2,0,16.4,0,24.6C5.8,42.3,5.8,42.6,5.8,43z"/>
<path class="st0" d="M5.9,78.7C6.4,79,7,78.9,7.5,78.9c22.7,0,45.3,0,68,0c0.4,0,0.7,0,1.1,0c0.2,0,0.4-0.1,0.6-0.1
	c0.2-1.2,0.2-18.6,0.1-26.2c0-0.2,0-0.5-0.1-0.8c-0.5-0.1-1-0.1-1.4-0.1c-22.8,0-45.7,0-68.5,0c-0.3,0-0.5,0-0.8,0
	c-0.2,0-0.4,0.1-0.6,0.1c-0.2,1.1-0.2,22-0.1,26.3C5.8,78.3,5.9,78.5,5.9,78.7z"/>
<path class="st0" d="M77.1,88.2C76,88.1,11.5,88,6.5,88.1c-0.2,0-0.4,0-0.6,0.1c-0.2,0.5-0.1,0.9-0.1,1.3c0,7.2,0,14.3,0,21.5
	c0,1.2,0,2.3,0,3.5c0,0.2,0.1,0.5,0.1,0.7c0.6,0.2,1.1,0.1,1.7,0.1c22.6,0,45.2,0,67.9,0c0.4,0,0.7,0,1.1,0c0.2,0,0.4-0.1,0.6-0.1
	c0.2-0.4,0.1-0.8,0.1-1.2c0-4.8,0-9.6,0-14.4c0-3.4,0-6.8,0-10.2C77.2,89,77.3,88.6,77.1,88.2z"/>
<path class="st0" d="M159.4,153c-6.3,7.2-12.5,14.2-18.8,21.3c4.7,5.5,9.4,10.9,14.1,16.4c12.6,0,25.1,0,37.6,0
	c0.1,0,0.2-0.1,0.3-0.1c0-0.1-0.1-0.2-0.1-0.3C181.5,177.9,170.5,165.5,159.4,153z"/>
</svg>
