<svg id="图层_1" data-name="图层 1" xmlns="http://www.w3.org/2000/svg" viewBox="0 0 657.47 188.49"><defs><style>.cls-1{fill:#ffd04b;}</style></defs><title>logo2</title><path class="cls-1" d="M546.87,94.18h-1.19a5.51,5.51,0,0,0-.55.07,4.85,4.85,0,0,0-.08,1.32q0,13.44,0,26.89c0,.25,0,.51,0,.76a5.91,5.91,0,0,0,.14.66h53.37c.4,0,.8,0,1.19,0a3,3,0,0,1,.5.11,2.43,2.43,0,0,1,.13,1.1q.18,15.07.35,30.13.13,11.87.24,23.74a14.94,14.94,0,0,0,.84,4.78,5.79,5.79,0,0,0,3.48,3.64c.4.16.81.3,1.23.43a14.33,14.33,0,0,0,4.18.48h43.91c.29,0,.58,0,.87,0s.41-.06.67-.1c.22-8.62.44-17.17.65-25.73a3.6,3.6,0,0,0-.06-.53,3.28,3.28,0,0,0-1.32-.12H633a3.27,3.27,0,0,1-1.42-.13,1.75,1.75,0,0,1-.1-.4q-.55-18.47-1.09-36.95a.86.86,0,0,1,.1-.29,1.73,1.73,0,0,1,1.07-.15h25.8V94.17H546.87Z" transform="translate(0.14 -3.26)"/><path class="cls-1" d="M655.75,17.44h-37.3c-.39,0-.78,0-1.24,0,0-.42-.06-.77-.06-1.12,0-2.1,0-4.19,0-6.29,0-.31,0-.63-.06-.92-1.25-.33-31.21-5.15-32.32-5.15,0,.35,0,.7,0,1.06q0,3.36,0,6.72c0,1.63,0,3.25,0,4.88a.93.93,0,0,1-.28.87H546.26c-.36,0-.72,0-1.08,0a.77.77,0,0,0-.76.76c0,.36,0,.72,0,1.08q0,15.83,0,31.66c0,.29,0,.58,0,.87a5.16,5.16,0,0,0,.13.65h25.74c.22,0,.43,0,.65,0s.4-.07.66-.11c0-.81,0-1.56,0-2.32s0-1.59,0-2.39a10.68,10.68,0,0,1,.1-2.32,7.87,7.87,0,0,1,1.61-.08H626c.33,0,.65,0,1,0a4.78,4.78,0,0,1,.64.14c0,.4,0,.76,0,1.12,0,1.7,0,3.4,0,5.1,0,.28-.08.59.26.86H656c.43,0,.86,0,1.3.05V17.62A3.88,3.88,0,0,0,655.75,17.44Z" transform="translate(0.14 -3.26)"/><path class="cls-1" d="M125.58,163.39,117,153.47c-.22-.26-.39-.61-.82-.69L115.1,154,89.84,182.72l-6.58,7.49c-.15.17-.43.31-.29.67.31,0,.63,0,1,.05l18.85.35,14.52.3c.54,0,1.07.12,1.6.18h1.3c.25-.35.48-.71.76-1l13.46-15.29a3.36,3.36,0,0,0,.73-.94l-.7-.84Z" transform="translate(0.14 -3.26)"/><path class="cls-1" d="M533.94,111.07c5.33-9.21,5.75-24.89,5.79-27.34q0-35.06,0-70.12c0-.29,0-.58,0-.87a2.55,2.55,0,0,0,0-.43.81.81,0,0,0-.73-.69,8.4,8.4,0,0,0-.87,0H470.57c-.25,0-.51,0-.76,0a.81.81,0,0,0-.87.89c0,.43,0,.87,0,1.3q0,86.67,0,173.34c0,.36,0,.72,0,1.08,0,.21,0,.41.07.64a2.8,2.8,0,0,0,.47.09h30.14a1.3,1.3,0,0,0,.33-.1,3.53,3.53,0,0,0,.1-1.38q0-38.27,0-76.54c0-.4,0-.8,0-1.19,0-.18,0-.35.06-.53a61.8,61.8,0,0,1,2.11,6.63c.65,2.25,1.25,4.52,1.91,6.78s1.2,4.45,1.93,6.68a5.77,5.77,0,0,0,.57-.16,105.51,105.51,0,0,0,15.59-7.77,4.5,4.5,0,0,1,.85-.41C527.62,118.08,531.85,114.69,533.94,111.07Zm-26.19-13.6-6.67,5c-.25.19-.53.36-.86.58-.09-.19-.15-.25-.15-.31q0-29.69,0-59.38c0-.18,0-.35.06-.58a3.45,3.45,0,0,1,.63-.12h7.15a4.43,4.43,0,0,1,.69.12c0,.38,0,.74,0,1.09q0,26,0,51.91C508.61,96.94,508.71,96.75,507.76,97.46Z" transform="translate(0.14 -3.26)"/><path class="cls-1" d="M188.46,52.62c0-.21-.06-.41-.09-.66l-1.23,0h-8.46a2.62,2.62,0,0,1-1.19-.12,5.05,5.05,0,0,1-.08-1.41q0-19.9,0-39.79c0-.36,0-.72,0-1.08a.51.51,0,0,0-.48-.5c-.36,0-.72,0-1.08,0H96c-.4,0-.8,0-1.19,0a.55.55,0,0,0-.56.56c0,.36,0,.72,0,1.08q0,19.73,0,39.47c0,.36,0,.72,0,1.08,0,.21,0,.41-.08.67a23.06,23.06,0,0,1-2.53.06h-5.1c-.86,0-1.72,0-2.62,0,0,.35-.07.63-.07.91-.13,9.2-.06,25,.14,26.14.4,0,.75.05,1.11.05h35c.22,0,.43,0,.65,0,.56,0,.7-.18.73-.73,0-.36,0-.72,0-1.08q0-19.62,0-39.25c0-.36,0-.72,0-1.08a5.58,5.58,0,0,1,.13-.68l1.32,0h25.8c.25,0,.51,0,.76,0a6.35,6.35,0,0,1,.66.13c0,.51,0,1,0,1.44q0,19.79,0,39.57c0,.29,0,.58,0,.87,0,.62.18.79.75.83.32,0,.65,0,1,0h35a8.43,8.43,0,0,0,.87,0,4.36,4.36,0,0,0,.65-.18V77.55q0-12.09,0-24.18C188.46,53.12,188.47,52.87,188.46,52.62Z" transform="translate(0.14 -3.26)"/><path class="cls-1" d="M186.11,88.32H84.85c-.33,0-.65,0-1,0a5.33,5.33,0,0,0-.58.09c-.17,1.19-.24,19-.1,26.19,0,.25,0,.49.07.77a2.05,2.05,0,0,0,.54.13,1.23,1.23,0,0,1,1.09.59c.09.11.19.22.28.33l22.46,26,8,9.27c.2.23.34.57.82.58l18.25-20.74c-.26-.32-.48-.6-.72-.86l-7-7.85-5.84-6.56a6.37,6.37,0,0,1-.44-.64,4,4,0,0,1,1.37-.12h25.26c.29,0,.58,0,.87,0a3.33,3.33,0,0,1,.57.17c-.35.41-.61.74-.9,1.06l-12.1,13.76-.87,1,19,21.23a1.35,1.35,0,0,0,.32.18c.27-.29.54-.57.8-.87l31.24-35.47a4.25,4.25,0,0,1,1.5-1.28c.12-2,.07-26-.07-27Z" transform="translate(0.14 -3.26)"/><path class="cls-1" d="M72.61,122.25a4.18,4.18,0,0,0-1.33-.1H1.35c-.25,0-.51,0-.76,0a5.53,5.53,0,0,0-.58.1c-.12.95-.21,65.44-.09,68a4.31,4.31,0,0,0,.08.51,3.52,3.52,0,0,0,1.63.16H70.91c.36,0,.72,0,1.08,0a4.51,4.51,0,0,0,.57-.1c.16-1.24.24-62.38.1-68C72.66,122.69,72.63,122.49,72.61,122.25ZM47.39,166.47a2.06,2.06,0,0,1-.08.4,1.9,1.9,0,0,1-1.18.16H26.52c-.39,0-.78,0-1.22,0-.15-1-.16-19.72,0-20.77a5.34,5.34,0,0,1,.58-.13,5.78,5.78,0,0,1,.65,0H46.12a3,3,0,0,1,1.19.12,2.22,2.22,0,0,1,.09.43Q47.4,156.55,47.39,166.47Z" transform="translate(0.14 -3.26)"/><path class="cls-1" d="M549.78,87.46a6.91,6.91,0,0,0,1.58.07h99.2c.36,0,.72,0,1.08,0a3.12,3.12,0,0,0,.52-.12,2.84,2.84,0,0,0,.12-1.2q0-7.59,0-15.18c0-2.71,0-5.42,0-8.13a1.88,1.88,0,0,0-.14-1.15c-1.05-.15-97-.24-101.8-.09-.21,0-.41,0-.69.07,0,.44,0,.83,0,1.22q0,7.53,0,15.07c0,2.75,0,5.49,0,8.24A1.85,1.85,0,0,0,549.78,87.46Z" transform="translate(0.14 -3.26)"/><path class="cls-1" d="M.6,43.23a1.58,1.58,0,0,0,.33.11l69.92,0c.29,0,.58,0,.87,0l.1,0a1.27,1.27,0,0,0,.15-.14c0-.28,0-.64,0-1q0-12.36,0-24.72c0-1.31,0-1.32-1.34-1.32H52.24c-.31,0-.63,0-1-.08-.14-1.22-.05-2.37-.07-3.52s0-2.3,0-3.47a3.23,3.23,0,0,0-.45-.15l-31-5.06s-.07,0-.1,0l-.16.1c0,.31,0,.66,0,1q0,4.93,0,9.87a2.92,2.92,0,0,1-.13,1.23c-.44,0-.87,0-1.29,0H2c-1.19,0-1.4-.08-1.4,1.39q0,12.3,0,24.61C.56,42.49.59,42.85.6,43.23Z" transform="translate(0.14 -3.26)"/><path class="cls-1" d="M.65,78.91a3.52,3.52,0,0,0,1.63.17h68c.36,0,.72,0,1.08,0a3.89,3.89,0,0,0,.58-.12c.18-1.19.25-18.55.11-26.17,0-.24,0-.49-.06-.77a5.74,5.74,0,0,0-1.44-.08H2c-.25,0-.51,0-.76,0S.86,52,.67,52C.51,53.07.43,74,.57,78.29A6,6,0,0,0,.65,78.91Z" transform="translate(0.14 -3.26)"/><path class="cls-1" d="M71.9,88.43c-1.08-.16-65.67-.25-70.59-.1-.21,0-.41,0-.64.07a3.81,3.81,0,0,0-.1,1.32q0,10.73,0,21.46c0,1.16,0,2.31,0,3.47a5.2,5.2,0,0,0,.1.7,4.11,4.11,0,0,0,1.67.15H70.19c.36,0,.72,0,1.08,0a4.91,4.91,0,0,0,.62-.11,2.82,2.82,0,0,0,.11-1.21q0-7.21,0-14.42,0-5.1,0-10.19A2.24,2.24,0,0,0,71.9,88.43Z" transform="translate(0.14 -3.26)"/><path class="cls-1" d="M585.66,133.86c-8.73-.14-27.81-.06-28.86.12-.06.29-.15.6-.19.92-.11.79-.19,1.58-.29,2.37q-.36,3-.73,5.91c-.32,2.58-.66,5.16-1,7.74s-.63,5.16-1,7.74a2.34,2.34,0,0,1-.31,1.15c-.18,0-.36.06-.54.07l-4.65.22-6.71.29a4.35,4.35,0,0,0-1.5.22,3.7,3.7,0,0,0-.09,1.29q0,8.94,0,17.89c0,2.49,0,5,0,7.48a1.27,1.27,0,0,0,.21,1l1.23,0h21.79c.94,0,1.88,0,2.81-.06.87-.45,1.74-.87,2.59-1.35a40,40,0,0,0,5.18-3.35,10.84,10.84,0,0,0,2.66-3,33.06,33.06,0,0,0,3-7,4.15,4.15,0,0,0,.1-.53q.87-4.85,1.75-9.7,1.14-6.29,2.29-12.57,1.33-7.35,2.64-14.71a6.37,6.37,0,0,0,.25-2.08C586.15,133.91,585.91,133.87,585.66,133.86Z" transform="translate(0.14 -3.26)"/><path class="cls-1" d="M154.12,153.24l-18.76,21.29,14.13,16.36h37.64a1.22,1.22,0,0,0,.31-.1,1,1,0,0,0-.12-.31Z" transform="translate(0.14 -3.26)"/><path class="cls-1" d="M427.1,94.83H393.23c-.36,0-.72,0-1.08,0a5.73,5.73,0,0,1-.62-.09,3.16,3.16,0,0,1-.12-1.33q0-24.34,0-48.68c0-.22,0-.43,0-.65s.06-.41.1-.68l1.44,0h31.88c.33,0,.65,0,1,0s.41,0,.68-.07c0-.42,0-.77,0-1.12q0-11.66,0-23.31c0-.25,0-.51,0-.76,0-.44-.23-.62-.7-.65s-.72,0-1.08,0H392.86l-1.43,0c0-1.5,0-2.87,0-4.24s0-2.74,0-4.15c-.4-.09-.75-.19-1.1-.25l-3.2-.58L376.95,6.38,366.61,4.51l-7-1.24a3.57,3.57,0,0,0-.56,0c0,.33,0,.62,0,.9,0,1.3,0,2.6,0,3.9,0,2.71,0,5.42,0,8.13a1.88,1.88,0,0,1-.19,1.22l-1.37,0H307.11c-.29,0-.58,0-.87,0a5.61,5.61,0,0,1-.67-.14c0-.87,0-1.7,0-2.52s0-1.74,0-2.6a14.5,14.5,0,0,0-.08-2.49,7.53,7.53,0,0,0-.74-.23l-10-2L280,4.51l-6.27-1.23a3.21,3.21,0,0,0-.55,0c0,.42,0,.77,0,1.13q0,3.36,0,6.72c0,1.77,0,3.54,0,5.31,0,.31.09.66-.24,1l-1.23,0h-29.6c-1.48,0-1.49,0-1.49,1.5q0,11.55,0,23.09c0,.22,0,.43,0,.65s.06.41.1.66l1.34,0h29.38c.36,0,.72,0,1.08,0a4.28,4.28,0,0,1,.65.15V45q0,24.12,0,48.25c0,.29,0,.58,0,.87s-.06.41-.09.64a4.09,4.09,0,0,1-1.33.1H241.25a2.82,2.82,0,0,0-1.2.11,4.15,4.15,0,0,0-.08,1.29q0,12.14,0,24.29c0,.25,0,.51,0,.76a5.53,5.53,0,0,0,.11.61,3.72,3.72,0,0,0,1.44.13h23.74c.4,0,.8,0,1.19,0a2.76,2.76,0,0,1,.55.16c-.28.36-.49.65-.72.92L251.69,140.3l-10.17,12a2.27,2.27,0,0,0-.68,1l1.07.28,14.62,3.59,15,3.68a1.41,1.41,0,0,0,1,0l.6-.73,10-12.65,5.39-6.79a1.67,1.67,0,0,1,.76-.69c0,.41.06.72.06,1q0,3.09,0,6.18c0,2.31,0,4.63,0,6.94a1.14,1.14,0,0,0,.26,1c.38,0,.85,0,1.31,0h23.74c.4,0,.8,0,1.19,0a7.77,7.77,0,0,1,.78.12c0,.73,0,1.41,0,2.09s0,1.37,0,2.06,0,1.45,0,2.17a9.18,9.18,0,0,1-.09,2,5.32,5.32,0,0,1-1.56.1H242.44c-.4,0-.8,0-1.19,0a5.07,5.07,0,0,0-.67.13v1.23q0,4.61,0,9.22,0,7.64,0,15.29a2.49,2.49,0,0,0,.12,1.19,3.79,3.79,0,0,0,1.49.13H424.89c.33,0,.65,0,1,0a3.3,3.3,0,0,0,.57-.14c.13-.94.2-23.94.1-26.4a4.61,4.61,0,0,0-.09-.53,4.85,4.85,0,0,0-1.43-.09H351.07c-.4,0-.8,0-1.19,0a5,5,0,0,1-.63-.11,17.66,17.66,0,0,1-.08-2.85c0-.9,0-1.81,0-2.71a14.78,14.78,0,0,1,.09-2.79,4,4,0,0,1,1.54-.13h25.15c.4,0,.8,0,1.19,0a3.47,3.47,0,0,0,.65-.18v-1.23q0-3.69,0-7.37,0-2.17,0-4.34c0-.17,0-.37.32-.43l9.24,10,9.27,10c.27-.07.49-.1.69-.17,5.83-2,28-10.28,29.07-10.84-.26-.31-.51-.61-.77-.9l-20.43-22.6q-2-2.17-3.92-4.35c-.15-.17-.42-.3-.29-.67a4.79,4.79,0,0,1,1.26-.07h23.2c.36,0,.72,0,1.08,0a5.4,5.4,0,0,0,.68-.13c0-.47,0-.9,0-1.32q0-10.68,0-21.36c0-1.19,0-2.39,0-3.58A6.21,6.21,0,0,0,427.1,94.83ZM305.67,43.48a5,5,0,0,1,.59-.1c.29,0,.58,0,.87,0h50.3l1.43,0a12.67,12.67,0,0,1,.12,3,19.93,19.93,0,0,1-.06,2.86,5.42,5.42,0,0,1-.63.12c-.29,0-.58,0-.87,0h-50.3l-1.44,0A37.79,37.79,0,0,1,305.67,43.48Zm53.32,15c0,.9,0,1.8,0,2.71,0,.32,0,.64,0,1a4.78,4.78,0,0,1-.76.13H347.46a4.45,4.45,0,0,1-.54-.07,1.22,1.22,0,0,1,.12-.35c.66-.74,11.2-10.23,11.73-10.58.32.13.21.42.21.65C359,54.11,359,56.28,359,58.44ZM305.58,77a3,3,0,0,1,.11-.46c3.53-.27,7.06-.18,10.55-.3.16.41-.15.51-.31.67l-6.72,6.27-2.77,2.58c-.2.19-.43.34-.77.6C305.56,85.54,305.5,78.13,305.58,77Zm11,50.84a2.51,2.51,0,0,1-1.25.12H299.78c-.25,0-.5,0-.94-.05a6.34,6.34,0,0,1,.39-.67c1.25-1.59,2.51-3.16,3.76-4.75a1.09,1.09,0,0,1,1-.51c.14,0,.29,0,.43,0h11.14a2.35,2.35,0,0,1,1.05.12A32.21,32.21,0,0,1,316.61,127.88Zm-9.48-33.05a4.57,4.57,0,0,1-1.44-.1,13.33,13.33,0,0,1-.1-2.9,19.15,19.15,0,0,1,.06-2.86,7.28,7.28,0,0,1,.73-.12c.32,0,.65,0,1,0h49.87c.54,0,1.07,0,1.66,0a39.49,39.49,0,0,1,0,5.81,4.27,4.27,0,0,1-.59.13c-.29,0-.58,0-.87,0ZM364.69,128H350.5c-.39,0-.78,0-1.22,0a39.21,39.21,0,0,1,0-5.82,4,4,0,0,1,.69-.12h9.32a1.41,1.41,0,0,1,1.15.48c1.48,1.63,3,3.24,4.48,4.86a3.17,3.17,0,0,1,.28.4C365.06,128,364.86,128,364.69,128Z" transform="translate(0.14 -3.26)"/></svg>