<?xml version="1.0" encoding="utf-8"?>
<!-- Generator: Adobe Illustrator 21.0.0, SVG Export Plug-In . SVG Version: 6.00 Build 0)  -->
<svg version="1.1" id="图层_1" xmlns="http://www.w3.org/2000/svg" xmlns:xlink="http://www.w3.org/1999/xlink" x="0px" y="0px"
	 viewBox="0 0 715 98" style="enable-background:new 0 0 715 98;" xml:space="preserve">
<style type="text/css">
	.st0{fill:#FFD04B;}
</style>
<path class="st0" d="M155.6,77.6c-4.2,0-8.1,0-12.2,0c0-2.4,0-4.6,0-6.8c-0.2-0.1-0.4-0.2-0.7-0.3c-2,2.5-4.2,5-6.1,7.6
	c-1.1,1.5-2.2,1.8-3.9,1.4c-3.8-1-7.7-1.9-12-3c4-4.6,7.7-9,11.8-13.8c-4.3,0-8,0-11.9,0c0-4.4,0-8.4,0-12.7c4.9,0,9.7,0,14.8,0
	c0-7.9,0-15.6,0-23.6c-4.8,0-9.7,0-14.9,0c0-2.7-0.2-5,0.1-7.2c0.4-3,2.7-4.9,5.9-5c2.9-0.1,5.8,0,9,0c0-2.3,0-4.4,0-6.9
	c5.2,1,10,1.9,14.9,2.9c0.1,1.3,0.2,2.4,0.3,3.8c8.1,0,16.2,0,24.6,0c0-2.2,0-4.3,0-6.7c5.2,0.9,10,1.8,14.9,2.6
	c0.1,1.5,0.2,2.7,0.3,4.3c3,0,5.9,0,8.8,0c4.6,0.1,6.8,2.2,6.9,6.8c0,1.6,0,3.3,0,5.2c-5.3,0-10.3,0-15.6,0c0,7.9,0,15.6,0,23.6
	c5.2,0,10.5,0,16,0c0,4.4,0,8.4,0,12.8c-3.6,0-7.1,0-11.5,0c4.1,4.4,7.6,8.3,11.5,12.5c-4.5,1.6-8.7,3.2-13,4.6
	c-0.5,0.2-1.5-0.7-2.1-1.2c-2.3-2.4-4.6-4.8-7.4-7.7c0,2.6,0,4.6,0,6.9c-4.7,0-8.9,0-13.4,0c0,1.3,0,2.4,0,3.8c11.7,0,23.4,0,35.2,0
	c0,4.3,0,8.3,0,12.5c-28.4,0-56.8,0-85.4,0c0-4.1,0-8.1,0-12.4c11.6,0,23.1,0,34.8,0C155.5,80.1,155.6,79.1,155.6,77.6z M150.9,49.6
	c8.3,0,16.4,0,24.4,0c0-1,0-1.8,0-2.8c-8.2,0-16.2,0-24.4,0C150.9,47.7,150.9,48.5,150.9,49.6z M150.9,26.3
	c-0.5,1.6-0.2,2.5,1.6,2.4c7-0.1,14,0,21,0c1.8,0,2.1-0.8,1.6-2.4C167.2,26.3,159.2,26.3,150.9,26.3z M156,64.8
	c-0.6-1.1-0.9-2.1-1.4-2.3c-2.8-1-5.7,0.1-6.7,2.3C150.3,64.8,152.7,64.8,156,64.8z M178.3,64.8c-1.9-3.6-4.9-2.1-7.4-2.2
	C170.7,65.3,171,65.4,178.3,64.8z M175.3,28.9c-2,2.2-3.5,3.8-5,5.5c1.7,0,3.3,0,5,0C175.3,32.6,175.3,31.2,175.3,28.9z M150.9,41.5
	c0,1.3,0,2.5,0,4.7c2-1.7,3.2-2.8,4.5-3.9c-0.3-0.3-0.6-0.5-0.8-0.8C153.4,41.5,152.2,41.5,150.9,41.5z"/>
<path class="st0" d="M244,65.6c-1-3.3-1.8-5.8-2.5-8.2c-0.2,0-0.3,0-0.5,0c0,11.7,0,23.3,0,35.2c-5,0-9.6,0-14.6,0
	c0-1.1,0-2.1,0-3.1c0-22.6,0-45.3,0-67.9c0-7.2,3.3-10.5,10.5-10.5c4.3,0,8.6,0,12.9,0c5.3,0,9.1,3.6,9.1,8.9
	c0.1,10.4,0,20.9,0,31.3c0,3-1,5.7-3.5,7.4C251.9,61.1,248.2,63.2,244,65.6z M241,25.7c0,9.3,0,18.3,0,27.5c2.5-1,3.7-2.4,3.6-5.1
	c-0.2-5.8-0.1-11.7-0.1-17.5c0-1.6,0-3.2,0-4.8C243.1,25.7,242.2,25.7,241,25.7z"/>
<path class="st0" d="M287.3,62.9c-8.8,0-17.2,0-25.6,0c0-4.6,0-8.9,0-13.5c17.1,0,34.1,0,51.5,0c0,4.3,0,8.7,0,13.5
	c-3.9,0-7.8,0-11.7,0c0,6.1,0,11.7,0,17.7c4.1,0,7.7,0,11.6,0c0,4.1,0,7.9,0,12.2c-1.2,0-2.1,0-3,0c-5.8,0-11.7,0-17.5,0
	c-3.7,0-4.7-1-4.8-4.7c-0.2-7.1-0.3-14.2-0.4-21.3C287.3,65.7,287.3,64.5,287.3,62.9z"/>
<path class="st0" d="M92,29.8c1.4,0.1,2.6,0.1,4.1,0.2c0,4.1,0,8.1,0,12.5c-4,0-8.1,0.2-12.1-0.1c-3.1-0.2-4.9-2.8-5-6.2
	c-0.1-4.4,0-8.7,0-13.3c-4.4,0-8.5,0-13.1,0c0,4,0,8.1,0,12.1c0,5.5-2,7.5-7.6,7.6c-3.3,0-6.6,0-10.1,0c0-4.2,0-8.2,0-12.5
	c1.5-0.1,3-0.1,5.1-0.2c0-3.9,0-7.9,0-11.8c0-6.1,1.8-7.9,7.8-7.9c7.6,0,15.2,0,22.8,0c6,0,7.8,1.9,7.8,7.9c0,3.7,0,7.4,0.1,11.1
	C91.7,29.2,91.8,29.4,92,29.8z"/>
<path class="st0" d="M62.8,75.9c-4.8-5.6-9.3-10.7-13.7-15.9c-0.6-0.7-1.1-1.7-1.1-2.6c-0.1-3.4-0.1-6.8-0.1-10.4
	c16.1,0,32,0,48.3,0c0,3.5,0,7,0,10.4c0,0.4-0.2,1-0.5,1.3c-5.1,5.7-10.3,11.4-15.6,17.3c-2.9-3.2-5.6-6.3-8.6-9.6
	c1.9-2.2,3.7-4.3,5.8-6.7c-4.2,0-7.8,0-12.1,0c2,2.4,3.8,4.4,5.8,6.8C68.4,69.5,65.7,72.6,62.8,75.9z"/>
<path class="st0" d="M42.9,93.9c-11.2,0-22.2,0-33.4,0c0-10.6,0-21.1,0-31.7c11.2,0,22.2,0,33.4,0C42.9,72.8,42.9,83.3,42.9,93.9z
	 M30.8,82.4c0-3.3,0-6.2,0-9.3c-3.3,0-6.5,0-9.8,0c0,3.2,0,6.2,0,9.3C24.3,82.4,27.4,82.4,30.8,82.4z"/>
<path class="st0" d="M279.6,7.7c5.3,0.8,10.1,1.6,15,2.3c0.1,1.3,0.2,2.5,0.3,4.1c2.9,0,5.8,0,8.7,0c6.4,0,9.9,3.5,9.9,10
	c0,1.9,0,3.9,0,6c-4.6,0-9,0-13.7,0c-0.1-0.9-0.2-1.9-0.4-3.3c-4.2,0-8.4,0-12.6,0c-4.3,0-8.5,0-12.9,0c-0.1,1.2-0.2,2.1-0.3,3.3
	c-4,0-8,0-12.3,0c0-2.9-0.3-6,0.1-8.9c0.6-4.3,4.2-7,8.8-7.1c3.1-0.1,6.2,0,9.6,0C279.6,11.9,279.6,10,279.6,7.7z"/>
<path class="st0" d="M263.9,46.4c0-2.7,0-5.1,0-7.5c0-1.3,0-2.5,0-4c15.7,0,31.3,0,47,0c0,3.8,0,7.6,0,11.6
	C295.4,46.4,279.8,46.4,263.9,46.4z"/>
<path class="st0" d="M18,7.7c5,0.8,9.5,1.5,14.3,2.3c0.1,1.1,0.3,2.1,0.3,2.4c3.3,1.2,7.3,1.5,8.9,3.6c1.8,2.3,1.5,6.3,2.1,9.9
	c-11.6,0-22.4,0-33.3,0c-1.4-8.5,0-12.6,7.7-12.6C18,11.6,18,9.8,18,7.7z"/>
<path class="st0" d="M42.9,30.1c0,4.1,0,8.1,0,12.2c-10.9,0-21.7,0-32.8,0c0-4,0-8,0-12.2C20.9,30.1,31.7,30.1,42.9,30.1z"/>
<path class="st0" d="M10,59.3c0-4,0-8,0-12.2c10.8,0,21.7,0,32.7,0c0,3.9,0,7.9,0,12.2C32.1,59.3,21.2,59.3,10,59.3z"/>
<path class="st0" d="M259.3,92.8c0-4.3,0-8.3,0-12.2c0.2-0.2,0.3-0.3,0.5-0.4c5.8-0.6,5.8-0.6,6.4-6.4c0.2-1.9,0.5-3.8,0.8-5.9
	c4.5,0,8.8,0,13.5,0c-1.1,6.2-2.1,12.2-3.4,18.2c-1,4.4-4.2,6.6-8.7,6.6C265.5,92.8,262.6,92.8,259.3,92.8z"/>
<path class="st0" d="M62.8,76.3c2.9,3.4,5.7,6.5,8.5,9.9c-2.1,2.4-4.1,4.8-6.2,7c-0.3,0.4-1,0.7-1.5,0.7c-5.1,0.1-10.2,0-15.3,0
	c-0.1-0.3-0.2-0.6-0.2-1C53,87.5,57.8,82,62.8,76.3z"/>
<path class="st0" d="M71.8,86.2c3-3.3,5.7-6.4,8.5-9.6c4.9,5.5,9.7,10.9,15.1,16.9c-6,0-11.3,0-16.5-0.1c-0.6,0-1.3-0.7-1.8-1.2
	C75.2,90.3,73.6,88.3,71.8,86.2z"/>
<g>
	<path class="st0" d="M356.1,40.4c2.4-3,4.3-6.4,5.5-10.4h-5.4v-2.2h5.6v-4.4c-1.6,0.2-3.1,0.3-4.7,0.5c-0.1-0.8-0.3-1.5-0.6-2.3
		c5.2-0.4,9.4-0.9,12.5-1.4l0.6,2.3c-1.9,0.2-3.7,0.4-5.5,0.7v4.7h5.9V30H364v4.4l1.4-1.3c1.6,1.3,3.1,2.7,4.5,4.2l-1.7,1.7
		c-1.4-1.5-2.8-2.8-4.2-4.1v13.7h-2.3V35.2c-1.2,3-2.7,5.6-4.6,7.7C356.9,42.1,356.5,41.3,356.1,40.4z M380.2,30.8
		c2.2,5.6,4.3,11.1,6.3,16.3l-2.5,1.1c-0.4-1.1-0.7-2.2-1.1-3.3c-4.3,0.4-7.8,0.7-10.7,1.1c-0.9,0.1-1.8,0.3-2.5,0.6l-1-2.6
		c0.8-0.5,1.4-1.5,1.9-3c2.3-6.6,4.4-13.8,6.3-21.6l2.8,0.5c-2.7,9.9-5.2,17.8-7.5,23.6c2.9-0.2,6.3-0.4,10-0.8
		c-1.3-3.9-2.7-7.6-4.1-11.2L380.2,30.8z"/>
	<path class="st0" d="M388.2,35.5h7.9c0.7-0.7,1.4-1.4,2-2.1h-4.6v0.8h-2v-9.4h21.6v9.4h-2v-0.8h-10.5c-0.5,0.7-1.1,1.4-1.8,2.1
		h17.7v1.8h-6.7c2,1.4,4.6,2.6,7.8,3.6c-0.5,0.7-1,1.4-1.4,2c-3.6-1.5-6.6-3.3-9-5.6h-10.2c-2.4,2.2-5.3,4.2-8.7,5.8
		c-0.4-0.6-0.8-1.2-1.3-1.8c2.7-1.2,5-2.5,7-4h-5.9V35.5z M387.9,21.1h8.9V19h2.1v2.1h6.9V19h2.1v2.1h8.9v1.8h-8.9v1.5h-2.1v-1.5
		h-6.9v1.5h-2.1v-1.5h-8.9V21.1z M393.5,40.5h5c0.1-0.7,0.1-1.5,0.2-2.3h2.2c0,0.8-0.1,1.6-0.2,2.3h9.9c0,1.3-0.1,2.7-0.2,4.2
		c-0.1,2.4-1.5,3.6-4.1,3.6h-3.7c-0.1-0.7-0.2-1.4-0.4-2.2c1.2,0.1,2.5,0.2,4,0.2c1.2,0,1.9-0.6,1.9-1.8c0.1-0.6,0.1-1.4,0.2-2.3
		h-8.1c-0.8,3.5-3.5,5.7-8.2,6.7c-0.3-0.5-0.8-1.2-1.4-1.9c4.2-0.6,6.7-2.2,7.4-4.7h-4.6V40.5z M411.2,26.5h-17.6v1.8h17.6V26.5z
		 M393.6,31.8h17.6v-1.9h-17.6V31.8z"/>
	<path class="st0" d="M424.4,24.1h1.9v7.1c0,4.8-0.4,8.4-1.2,10.7c-0.7,2.3-2.2,4.6-4.6,6.9c-0.5-0.7-1-1.3-1.5-1.9
		c2.9-2.6,4.6-5.4,5-8.5c-0.9,0.5-1.7,0.9-2.3,1.3c-0.5,0.3-0.9,0.7-1.3,1.1l-1.4-1.8c0.5-0.6,0.8-1.5,0.8-2.6V21.5
		c2.4-0.8,4.5-1.5,6.4-2.3l0.9,2c-1.2,0.5-3,1.1-5.4,1.9v14.3c0.9-0.4,1.7-0.9,2.7-1.4C424.3,34.4,424.4,30.5,424.4,24.1z
		 M421.7,28.1l1.3-0.5c0.3,1,0.6,2.8,1.1,5.4l-1.4,0.6C422.5,32,422.2,30.2,421.7,28.1z M428,21.2h6.7v18.2c0,2.2-0.8,3.3-2.5,3.3
		h-1.6c-0.1-0.8-0.3-1.5-0.6-2.2c0.7,0.1,1.4,0.1,1.9,0.1c0.6,0,0.9-0.4,0.9-1.3V23.3h-2.9v25.2H428V21.2z M430.1,28.4l1.4-0.4
		c0.3,1,0.6,2.8,1.1,5.4l-1.4,0.5C430.9,32.2,430.5,30.4,430.1,28.4z M435.4,37.9h5.6v-1.6l3.6-3.8h-8.1v-2.1H447v2.2l-4,4.3v0.9
		h5.3v2.1H443v5c0,2.2-1,3.3-3,3.3c-0.8,0-1.8,0-2.9-0.1c-0.1-0.8-0.2-1.6-0.3-2.4c1.1,0.2,2.1,0.3,3,0.3c0.8,0,1.2-0.4,1.2-1.3
		v-4.8h-5.6V37.9z M435.5,24.7l1.7-0.8c0.9,1.9,1.7,3.6,2.2,4.9l-1.9,0.9C437,27.9,436.3,26.2,435.5,24.7z M436.1,22.6
		c-0.1-0.7-0.3-1.5-0.5-2.2c4.7-0.1,8.7-0.4,12-0.8l0.4,2.1C444.7,22.1,440.7,22.4,436.1,22.6z M440,23.5l1.9-0.5
		c0.6,2,1.1,3.7,1.3,5l-1.9,0.6C440.9,26.7,440.4,25,440,23.5z M448.3,24.1c-0.9,2.1-1.8,4-2.8,5.7l-1.8-0.9c1-1.7,1.9-3.5,2.7-5.6
		L448.3,24.1z"/>
	<path class="st0" d="M449.5,33.8c3.5-4.7,6.1-9.7,7.8-14.9l2.6,0.8c-1,2.5-2,4.9-3.1,7.1v21.7h-2.6V31.3c-1.1,1.8-2.3,3.5-3.6,5.1
		C450.3,35.6,449.9,34.7,449.5,33.8z M458,37.6c2.7-1.2,5.1-2.7,7.4-4.3V19.3h2.6v12c3.1-2.5,5.9-5.4,8.3-8.7l2.2,1.6
		c-2.9,3.9-6.4,7.3-10.5,10.3v8.6c0,1.4,0.7,2.1,2.2,2.1h3.9c1.4,0,2.2-0.7,2.4-2c0.3-1.4,0.5-3,0.5-4.8c0.9,0.3,1.7,0.6,2.7,0.9
		c-0.2,1.7-0.4,3.3-0.6,4.7c-0.4,2.3-1.8,3.5-4.4,3.5h-5.1c-2.8,0-4.1-1.4-4.1-4.1v-7.1c-1.9,1.2-3.9,2.3-6,3.3
		C459,39,458.6,38.3,458,37.6z"/>
	<path class="st0" d="M510.9,41.2c-0.7,0.8-1.2,1.6-1.6,2.2c-1.9-0.9-3.6-1.9-5.1-3.2v1.7h-7.3v3.2h11.9v2h-26v-2h11.9v-3.2h-7.4
		v-1.7c-1.6,1.3-3.3,2.5-5,3.5c-0.4-0.5-0.9-1.2-1.6-1.9c3.1-1.5,5.8-3.4,8.1-5.8h-7.8v-2h6V23.9h-5.1v-2h5.1v-3.3h2.3V22h13v-3.3
		h2.3V22h5.1v2h-5.1v10.2h6v2h-8C504.8,38.4,507.6,40.1,510.9,41.2z M494.6,37.1h2.3V40h7c-1.4-1.2-2.8-2.5-4-3.9h-8.4
		c-1.3,1.4-2.6,2.7-4,3.9h7.1V37.1z M489.3,26.1h13v-2.1h-13V26.1z M489.3,30.1h13v-2.1h-13V30.1z M489.3,34.1h13V32h-13V34.1z"/>
	<path class="st0" d="M511.5,43.1c1.4-0.5,2.9-0.9,4.4-1.4V29.6H512v-2.1h3.9V19h2.2v8.5h3.5v2.1h-3.5V41c1.3-0.4,2.6-0.9,3.9-1.4
		c0,0.9,0.1,1.6,0.2,2.2c-3.3,1.2-6.6,2.4-9.9,3.6L511.5,43.1z M530.6,18.8h2.4v7.9l7.4-2.2c-0.1,4-0.2,7.3-0.4,9.8
		c-0.1,2.7-1.2,4.1-3.3,4.1c-0.9,0-1.8,0-2.7,0c-0.1-0.8-0.3-1.6-0.5-2.5c1,0.1,1.8,0.2,2.5,0.2c1.1,0,1.6-0.8,1.6-2.3
		c0.1-1.8,0.2-3.9,0.2-6.3L533,29v13.2h-2.4V29.7l-4.6,1.4v11.8c0,1.6,0.9,2.4,2.6,2.4h7.4c1.9,0,2.9-0.7,3.1-2.2
		c0.2-1.3,0.4-2.8,0.6-4.5c0.8,0.3,1.7,0.6,2.5,0.9c-0.3,1.9-0.6,3.5-0.8,4.7c-0.5,2.3-2.1,3.5-4.8,3.5H528c-2.9,0-4.4-1.4-4.4-4.3
		V31.9l-2.3,0.7l-0.4-2.2l2.7-0.8v-7.1h2.4v6.4l4.6-1.4V18.8z"/>
	<path class="st0" d="M356.1,77.7c2.4-3,4.3-6.4,5.5-10.4h-5.4v-2.2h5.6v-4.4c-1.6,0.2-3.1,0.3-4.7,0.5c-0.1-0.8-0.3-1.5-0.6-2.3
		c5.2-0.4,9.4-0.9,12.5-1.4l0.6,2.3c-1.9,0.2-3.7,0.4-5.5,0.7v4.7h5.9v2.2H364v4.4l1.4-1.3c1.6,1.3,3.1,2.7,4.5,4.2l-1.7,1.7
		c-1.4-1.5-2.8-2.8-4.2-4.1V86h-2.3V72.6c-1.2,3-2.7,5.6-4.6,7.7C356.9,79.5,356.5,78.6,356.1,77.7z M380.2,68.1
		c2.2,5.6,4.3,11.1,6.3,16.3l-2.5,1.1c-0.4-1.1-0.7-2.2-1.1-3.3c-4.3,0.4-7.8,0.7-10.7,1.1c-0.9,0.1-1.8,0.3-2.5,0.6l-1-2.6
		c0.8-0.5,1.4-1.5,1.9-3c2.3-6.6,4.4-13.8,6.3-21.6l2.8,0.5c-2.7,9.9-5.2,17.8-7.5,23.6c2.9-0.2,6.3-0.4,10-0.8
		c-1.3-3.9-2.7-7.6-4.1-11.2L380.2,68.1z"/>
	<path class="st0" d="M388.2,72.9h7.9c0.7-0.7,1.4-1.4,2-2.1h-4.6v0.8h-2v-9.4h21.6v9.4h-2v-0.8h-10.5c-0.5,0.7-1.1,1.4-1.8,2.1
		h17.7v1.8h-6.7c2,1.4,4.6,2.6,7.8,3.6c-0.5,0.7-1,1.4-1.4,2c-3.6-1.5-6.6-3.3-9-5.6h-10.2c-2.4,2.2-5.3,4.2-8.7,5.8
		c-0.4-0.6-0.8-1.2-1.3-1.8c2.7-1.2,5-2.5,7-4h-5.9V72.9z M387.9,58.4h8.9v-2.1h2.1v2.1h6.9v-2.1h2.1v2.1h8.9v1.8h-8.9v1.5h-2.1
		v-1.5h-6.9v1.5h-2.1v-1.5h-8.9V58.4z M393.5,77.8h5c0.1-0.7,0.1-1.5,0.2-2.3h2.2c0,0.8-0.1,1.6-0.2,2.3h9.9c0,1.3-0.1,2.7-0.2,4.2
		c-0.1,2.4-1.5,3.6-4.1,3.6h-3.7c-0.1-0.7-0.2-1.4-0.4-2.2c1.2,0.1,2.5,0.2,4,0.2c1.2,0,1.9-0.6,1.9-1.8c0.1-0.6,0.1-1.4,0.2-2.3
		h-8.1c-0.8,3.5-3.5,5.7-8.2,6.7c-0.3-0.5-0.8-1.2-1.4-1.9c4.2-0.6,6.7-2.2,7.4-4.7h-4.6V77.8z M411.2,63.9h-17.6v1.8h17.6V63.9z
		 M393.6,69.2h17.6v-1.9h-17.6V69.2z"/>
	<path class="st0" d="M448.7,78.6c-0.7,0.8-1.2,1.6-1.6,2.2c-1.9-0.9-3.6-1.9-5.1-3.2v1.7h-7.3v3.2h11.9v2h-26v-2h11.9v-3.2H425
		v-1.7c-1.6,1.3-3.3,2.5-5,3.5c-0.4-0.5-0.9-1.2-1.6-1.9c3.1-1.5,5.8-3.4,8.1-5.8h-7.8v-2h6V61.3h-5.1v-2h5.1V56h2.3v3.3h13V56h2.3
		v3.3h5.1v2h-5.1v10.2h6v2h-8C442.6,75.7,445.4,77.4,448.7,78.6z M432.3,74.4h2.3v2.9h7c-1.4-1.2-2.8-2.5-4-3.9h-8.4
		c-1.3,1.4-2.6,2.7-4,3.9h7.1V74.4z M427,63.4h13v-2.1h-13V63.4z M427,67.4h13v-2.1h-13V67.4z M427,71.5h13v-2.2h-13V71.5z"/>
	<path class="st0" d="M450.5,82.6h12.9v-7.4h-10.9V73h10.9v-4.3h-7.9v-2.1c-1.4,0.9-3,1.8-4.7,2.7c-0.4-0.8-0.9-1.5-1.5-2.3
		c6.7-3.2,11.5-6.8,14.3-10.9h3.3l-0.7,0.9c3.2,4.1,7.8,7.3,13.7,9.6c-0.5,0.8-1.1,1.6-1.6,2.4c-1.6-0.7-3.1-1.5-4.6-2.4v2.1h-7.9
		V73h10.8v2.2h-10.8v7.4h12.9v2.2h-28.3V82.6z M453.9,77.1l1.8-1.4c1.5,1.5,2.9,3.1,4.3,4.7L458,82
		C456.8,80.4,455.4,78.7,453.9,77.1z M464.6,58.8c-2.1,2.6-5.1,5.2-9,7.8h17.8C470.3,64.5,467.3,61.9,464.6,58.8z M469,80.6
		c1.6-1.7,3-3.4,4.2-5l2.1,1.4c-1.4,1.8-2.9,3.5-4.5,5.1L469,80.6z"/>
	<path class="st0" d="M491.1,77c0,1,0.1,1.9,0.2,2.7c-2.8,1.8-4.8,3.3-6.2,4.3l-1.5-2c0.7-0.7,1-1.6,1-2.7V68.5h-3.9v-2.2h6.2v13.5
		C488.3,78.9,489.7,78,491.1,77z M485,57c1.6,1.5,3,3.1,4.5,4.7l-2.1,1.8c-1.5-1.9-2.9-3.5-4.2-4.9L485,57z M491,71.7v-2.1h16.6v2.1
		c-1.6,3.5-3.6,6.3-5.9,8.3c2.6,1.7,5.7,2.9,9.3,3.6c-0.7,0.9-1.3,1.7-1.9,2.5c-3.6-1-6.8-2.6-9.5-4.5c-2.8,1.9-6.2,3.5-10.5,4.8
		c-0.5-0.8-1.1-1.5-1.6-2.2c4-1.1,7.4-2.5,10.1-4.1c-2.4-2.3-4.1-5-5.1-8.2H491z M503.8,59.8h-7.6v0.9c0,3.7-1.7,6.5-5.1,8.3
		c-0.5-0.7-1.1-1.3-1.8-1.9c3-1.5,4.5-3.7,4.5-6.4v-3.2h12.3v6.2c0,0.9,0.5,1.4,1.4,1.4h3.3c-0.1,0.8-0.2,1.6-0.2,2.2h-4
		c-1.9,0-2.9-1.1-2.9-3.2V59.8z M494.9,71.7c1,2.6,2.6,4.9,4.8,6.8c2.1-1.7,3.9-3.9,5.2-6.8H494.9z"/>
	<path class="st0" d="M512.2,81.8H528c2.3-4.6,4.6-10,6.6-16.3l2.8,1c-2.1,5.7-4.2,10.8-6.4,15.3h10.6v2.3h-29.4V81.8z M512.9,61.9
		h27.9v2.3h-27.9V61.9z M516.5,66.8l2.4-1c1.9,4.3,3.6,8.6,5.3,13l-2.7,1.1C519.9,75.1,518.2,70.8,516.5,66.8z M523.6,57l2.2-1.2
		c1,1.4,2,2.9,3,4.6l-2.4,1.4C525.6,60.2,524.7,58.6,523.6,57z"/>
	<path class="st0" d="M547,63h6.4c0.5-2.1,0.9-4.4,1.3-6.9l2.6,0.3c-0.3,2.3-0.8,4.5-1.3,6.6h16.8v2.2h-17.4
		c-0.4,1.3-0.8,2.6-1.2,3.9h15.1v2.1c-1.3,3.3-3.4,6.2-6.2,8.6c2.8,1.7,6.2,2.9,10,3.6c-0.9,1-1.6,1.9-2.1,2.6
		c-3.2-1.1-6.5-2.6-9.8-4.7c-2.6,1.7-6.4,3.4-11.3,4.9c-0.6-0.8-1.2-1.6-1.8-2.2c5-1.3,8.7-2.7,11.2-4.1c-2.7-2.3-4.6-5.2-5.7-8.6
		c-2.2,5.6-5.2,10.1-9.1,13.7c-0.5-0.8-1.1-1.5-1.6-2.1c4.6-4.1,7.9-10,10.1-17.6h-8.4v-2.3c0.8-1.9,1.6-3.9,2.3-5.8l2.5,0.7
		C548.4,59.6,547.7,61.3,547,63z M566.6,71.2h-11c0.9,2.8,2.7,5.2,5.4,7.2C563.7,76.2,565.5,73.8,566.6,71.2z M561.9,58.1l1.3-1.7
		c2,1.3,3.9,2.6,5.7,3.9l-1.6,2C565.6,60.8,563.8,59.4,561.9,58.1z"/>
	<path class="st0" d="M574,74.3c3.1-2.6,6-6.2,8.6-10.8l2.1,1.3c-1,1.8-2.1,3.5-3.3,5.1v16.1h-2.5v-13c-1.2,1.4-2.5,2.6-3.8,3.8
		C574.7,75.9,574.4,75.1,574,74.3z M574.2,64.7c3.2-2.5,5.8-5.4,7.8-8.7l2.2,1.3c-2.4,3.6-5.3,6.8-8.8,9.7
		C575,66.2,574.6,65.4,574.2,64.7z M585,67.5h19.2v2.3h-5.9v11.9c0,2.5-1.3,3.8-3.8,3.8c-1.7,0-3.4,0-5.2,0
		c-0.1-0.8-0.3-1.7-0.5-2.7c1.6,0.2,3.2,0.2,4.8,0.2c1.4,0,2.1-0.7,2.1-2.1V69.8H585V67.5z M586.8,58.3h15.8v2.3h-15.8V58.3z"/>
	<path class="st0" d="M605.8,58.1h11.1v2.1h-4.4c-0.5,2.4-1.2,4.7-2,6.9h5.1v14.3h-5.7v2.5h-2.1v-11c-0.4,0.7-0.9,1.4-1.3,2.1
		c-0.5-0.7-1-1.4-1.5-1.9c2.6-3.8,4.3-8.1,5.2-12.8h-4.4V58.1z M613.5,79.2V69.2h-3.6v10.1H613.5z M616.8,69.2h3.7
		c0-0.5,0-3.5,0-9.1H618v-2.2h16.1v2.2h-3.1v9.1h4.2v2.2h-4.2v14.4h-2.3V71.5h-5.9c-0.1,6-2,10.9-5.9,14.6c-0.6-0.6-1.3-1.2-2-1.8
		c3.6-3.4,5.4-7.7,5.5-12.9h-3.6V69.2z M622.8,69.2h5.9v-9.1h-5.9C622.8,65.4,622.8,68.5,622.8,69.2z"/>
	<path class="st0" d="M658.2,72v8.7c0,1.3,0.5,2,1.6,2h2.2c1,0,1.5-0.5,1.6-1.5c0.1-1,0.3-2.3,0.4-4.1c0.7,0.3,1.5,0.6,2.4,0.9
		c-0.1,1.1-0.2,2.4-0.5,3.9c-0.2,2-1.3,3-3.3,3h-3.5c-2.3,0-3.4-1.4-3.4-4.1v-6.7h-6.8c-0.8,5.9-4.4,9.9-10.9,11.9
		c-0.6-1-1.1-1.7-1.5-2.2c6-1.8,9.3-5,9.9-9.7h-7.7V72h8c0.1-1.2,0.2-2.6,0.3-4.3h2.4c-0.1,1.6-0.2,3.1-0.3,4.3H658.2z M646.7,63.3
		l1.7,1.6c-3.2,2.5-6.4,4.7-9.7,6.5c-0.6-0.8-1.1-1.5-1.5-1.9C640.8,67.7,643.9,65.6,646.7,63.3z M637.6,59.9h12.8
		c-0.6-1.2-1.2-2.1-1.7-2.9l2.2-1.1c0.7,1,1.4,2.1,2.1,3.4l-1.3,0.6h13.3v6h-2.4v-3.8h-22.6V66h-2.4V59.9z M654.9,63.3
		c3.3,1.9,6.6,4,10,6.2l-1.6,2.1c-3.3-2.4-6.5-4.6-9.8-6.6L654.9,63.3z"/>
	<path class="st0" d="M677.4,74c0.6,3.9-0.3,6.1-2.8,6.6c-0.8,0.2-1.8,0.2-2.9,0.1c-0.1-0.8-0.4-1.7-0.6-2.5v7.7h-2.2v-28h8.5V60
		c-0.8,3.2-1.7,5.9-2.5,8.3C676.4,70.4,677.2,72.3,677.4,74z M673.8,78.4c1.4-0.3,1.8-1.7,1.3-4.3c-0.2-1.5-1.1-3.3-2.6-5.3
		c1.1-3.9,1.9-6.8,2.4-8.7H671v18.1C672.1,78.4,673,78.5,673.8,78.4z M678.1,71.7h18.5v2.1h-6.1v7.8c0,1,0.3,1.4,1,1.4h2
		c0.7,0,1.1-0.5,1.3-1.4c0.1-1,0.2-2.3,0.3-4c0.7,0.3,1.5,0.6,2.4,0.9c-0.2,1.6-0.3,2.9-0.5,4c-0.2,1.7-1.3,2.6-3.1,2.6h-3.2
		c-1.7,0-2.6-1-2.6-2.9v-8.4h-3.3c0,3.3-0.5,5.7-1.5,7.2c-1.1,1.8-3.2,3.4-6.4,5c-0.8-1-1.3-1.7-1.7-2.1c2.7-1.1,4.7-2.4,5.8-4
		c1-1.4,1.4-3.4,1.4-6.1h-4.6V71.7z M678.2,59.9h8.4c-0.5-0.9-1.2-1.9-1.8-2.9l1.9-1.1c0.8,1.2,1.5,2.3,2.2,3.3l-1.4,0.8h8.8v4.9
		H694V62h-13.5v2.8h-2.3V59.9z M679.5,65.8h15.6v2.1h-15.6V65.8z"/>
</g>
</svg>
